<svg xmlns="http://www.w3.org/2000/svg" xmlns:xlink="http://www.w3.org/1999/xlink" version="1.1" width="334" height="214"><defs/><g transform=" scale(0.5) translate(-176,-236)"><rect x="398" y="358" width="4" height="4" fill="#000000" stroke="none" pointer-events="none"/><rect x="278" y="358" width="4" height="4" fill="#000000" stroke="none" pointer-events="none"/><ellipse cx="375" cy="360" rx="4" ry="4" fill="transparent" stroke="#000000" stroke-width="4" pointer-events="none"/><rect x="301.3" y="344.26" width="77.84" height="1.88" fill="none" stroke="#000000" stroke-width="2.16" pointer-events="none"/><ellipse cx="305" cy="360" rx="4" ry="4" fill="transparent" stroke="#000000" stroke-width="4" pointer-events="none"/><path d="M 381 360 L 398 360" fill="none" stroke="#000000" stroke-width="4" stroke-linecap="square" stroke-miterlimit="10" pointer-events="none"/><path d="M 282 360 L 299 360" fill="none" stroke="#000000" stroke-width="4" stroke-linecap="square" stroke-miterlimit="10" pointer-events="none"/><path d="M 340.24 311.44 C 340.24 343.2 340.24 343.2 340.24 343.2" fill="none" stroke="#000000" stroke-width="4" stroke-linecap="square" stroke-miterlimit="10" pointer-events="none"/><rect x="578" y="358" width="4" height="4" fill="#000000" stroke="none" pointer-events="none"/><rect x="458" y="358" width="4" height="4" fill="#000000" stroke="none" pointer-events="none"/><ellipse cx="555" cy="360" rx="4" ry="4" fill="transparent" stroke="#000000" stroke-width="4" pointer-events="none"/><rect x="481.3" y="344.26" width="77.84" height="1.88" fill="none" stroke="#000000" stroke-width="2.16" pointer-events="none"/><ellipse cx="485" cy="360" rx="4" ry="4" fill="transparent" stroke="#000000" stroke-width="4" pointer-events="none"/><path d="M 561 360 L 578 360" fill="none" stroke="#000000" stroke-width="4" stroke-linecap="square" stroke-miterlimit="10" pointer-events="none"/><path d="M 462 360 L 479 360" fill="none" stroke="#000000" stroke-width="4" stroke-linecap="square" stroke-miterlimit="10" pointer-events="none"/><path d="M 520.24 311.44 C 520.24 343.2 520.24 343.2 520.24 343.2" fill="none" stroke="#000000" stroke-width="4" stroke-linecap="square" stroke-miterlimit="10" pointer-events="none"/><rect x="758" y="358" width="4" height="4" fill="#000000" stroke="none" pointer-events="none"/><rect x="638" y="358" width="4" height="4" fill="#000000" stroke="none" pointer-events="none"/><ellipse cx="735" cy="360" rx="4" ry="4" fill="transparent" stroke="#000000" stroke-width="4" pointer-events="none"/><rect x="661.3" y="344.26" width="77.84" height="1.88" fill="none" stroke="#000000" stroke-width="2.16" pointer-events="none"/><ellipse cx="665" cy="360" rx="4" ry="4" fill="transparent" stroke="#000000" stroke-width="4" pointer-events="none"/><path d="M 741 360 L 758 360" fill="none" stroke="#000000" stroke-width="4" stroke-linecap="square" stroke-miterlimit="10" pointer-events="none"/><path d="M 642 360 L 659 360" fill="none" stroke="#000000" stroke-width="4" stroke-linecap="square" stroke-miterlimit="10" pointer-events="none"/><path d="M 700.24 311.44 C 700.24 343.2 700.24 343.2 700.24 343.2" fill="none" stroke="#000000" stroke-width="4" stroke-linecap="square" stroke-miterlimit="10" pointer-events="none"/><rect x="398" y="458" width="4" height="4" fill="#000000" stroke="none" pointer-events="none"/><rect x="278" y="458" width="4" height="4" fill="#000000" stroke="none" pointer-events="none"/><ellipse cx="375" cy="460" rx="4" ry="4" fill="transparent" stroke="#000000" stroke-width="4" pointer-events="none"/><rect x="301.3" y="444.26" width="77.84" height="1.88" fill="none" stroke="#000000" stroke-width="2.16" pointer-events="none"/><ellipse cx="305" cy="460" rx="4" ry="4" fill="transparent" stroke="#000000" stroke-width="4" pointer-events="none"/><path d="M 381 460 L 398 460" fill="none" stroke="#000000" stroke-width="4" stroke-linecap="square" stroke-miterlimit="10" pointer-events="none"/><path d="M 282 460 L 299 460" fill="none" stroke="#000000" stroke-width="4" stroke-linecap="square" stroke-miterlimit="10" pointer-events="none"/><path d="M 340.24 411.44 C 340.24 443.2 340.24 443.2 340.24 443.2" fill="none" stroke="#000000" stroke-width="4" stroke-linecap="square" stroke-miterlimit="10" pointer-events="none"/><rect x="578" y="458" width="4" height="4" fill="#000000" stroke="none" pointer-events="none"/><rect x="458" y="458" width="4" height="4" fill="#000000" stroke="none" pointer-events="none"/><ellipse cx="555" cy="460" rx="4" ry="4" fill="transparent" stroke="#000000" stroke-width="4" pointer-events="none"/><rect x="481.3" y="444.26" width="77.84" height="1.88" fill="none" stroke="#000000" stroke-width="2.16" pointer-events="none"/><ellipse cx="485" cy="460" rx="4" ry="4" fill="transparent" stroke="#000000" stroke-width="4" pointer-events="none"/><path d="M 561 460 L 578 460" fill="none" stroke="#000000" stroke-width="4" stroke-linecap="square" stroke-miterlimit="10" pointer-events="none"/><path d="M 462 460 L 479 460" fill="none" stroke="#000000" stroke-width="4" stroke-linecap="square" stroke-miterlimit="10" pointer-events="none"/><path d="M 520.24 411.44 C 520.24 443.2 520.24 443.2 520.24 443.2" fill="none" stroke="#000000" stroke-width="4" stroke-linecap="square" stroke-miterlimit="10" pointer-events="none"/><rect x="758" y="458" width="4" height="4" fill="#000000" stroke="none" pointer-events="none"/><rect x="638" y="458" width="4" height="4" fill="#000000" stroke="none" pointer-events="none"/><ellipse cx="735" cy="460" rx="4" ry="4" fill="transparent" stroke="#000000" stroke-width="4" pointer-events="none"/><rect x="661.3" y="444.26" width="77.84" height="1.88" fill="none" stroke="#000000" stroke-width="2.16" pointer-events="none"/><ellipse cx="665" cy="460" rx="4" ry="4" fill="transparent" stroke="#000000" stroke-width="4" pointer-events="none"/><path d="M 741 460 L 758 460" fill="none" stroke="#000000" stroke-width="4" stroke-linecap="square" stroke-miterlimit="10" pointer-events="none"/><path d="M 642 460 L 659 460" fill="none" stroke="#000000" stroke-width="4" stroke-linecap="square" stroke-miterlimit="10" pointer-events="none"/><path d="M 700.24 411.44 C 700.24 443.2 700.24 443.2 700.24 443.2" fill="none" stroke="#000000" stroke-width="4" stroke-linecap="square" stroke-miterlimit="10" pointer-events="none"/><rect x="398" y="558" width="4" height="4" fill="#000000" stroke="none" pointer-events="none"/><rect x="278" y="558" width="4" height="4" fill="#000000" stroke="none" pointer-events="none"/><ellipse cx="375" cy="560" rx="4" ry="4" fill="transparent" stroke="#000000" stroke-width="4" pointer-events="none"/><rect x="301.3" y="544.26" width="77.84" height="1.88" fill="none" stroke="#000000" stroke-width="2.16" pointer-events="none"/><ellipse cx="305" cy="560" rx="4" ry="4" fill="transparent" stroke="#000000" stroke-width="4" pointer-events="none"/><path d="M 381 560 L 398 560" fill="none" stroke="#000000" stroke-width="4" stroke-linecap="square" stroke-miterlimit="10" pointer-events="none"/><path d="M 282 560 L 299 560" fill="none" stroke="#000000" stroke-width="4" stroke-linecap="square" stroke-miterlimit="10" pointer-events="none"/><path d="M 340.24 511.44 C 340.24 543.2 340.24 543.2 340.24 543.2" fill="none" stroke="#000000" stroke-width="4" stroke-linecap="square" stroke-miterlimit="10" pointer-events="none"/><rect x="578" y="558" width="4" height="4" fill="#000000" stroke="none" pointer-events="none"/><rect x="458" y="558" width="4" height="4" fill="#000000" stroke="none" pointer-events="none"/><ellipse cx="555" cy="560" rx="4" ry="4" fill="transparent" stroke="#000000" stroke-width="4" pointer-events="none"/><rect x="481.3" y="544.26" width="77.84" height="1.88" fill="none" stroke="#000000" stroke-width="2.16" pointer-events="none"/><ellipse cx="485" cy="560" rx="4" ry="4" fill="transparent" stroke="#000000" stroke-width="4" pointer-events="none"/><path d="M 561 560 L 578 560" fill="none" stroke="#000000" stroke-width="4" stroke-linecap="square" stroke-miterlimit="10" pointer-events="none"/><path d="M 462 560 L 479 560" fill="none" stroke="#000000" stroke-width="4" stroke-linecap="square" stroke-miterlimit="10" pointer-events="none"/><path d="M 520.24 511.44 C 520.24 543.2 520.24 543.2 520.24 543.2" fill="none" stroke="#000000" stroke-width="4" stroke-linecap="square" stroke-miterlimit="10" pointer-events="none"/><rect x="758" y="558" width="4" height="4" fill="#000000" stroke="none" pointer-events="none"/><rect x="638" y="558" width="4" height="4" fill="#000000" stroke="none" pointer-events="none"/><ellipse cx="735" cy="560" rx="4" ry="4" fill="transparent" stroke="#000000" stroke-width="4" pointer-events="none"/><rect x="661.3" y="544.26" width="77.84" height="1.88" fill="none" stroke="#000000" stroke-width="2.16" pointer-events="none"/><ellipse cx="665" cy="560" rx="4" ry="4" fill="transparent" stroke="#000000" stroke-width="4" pointer-events="none"/><path d="M 741 560 L 758 560" fill="none" stroke="#000000" stroke-width="4" stroke-linecap="square" stroke-miterlimit="10" pointer-events="none"/><path d="M 642 560 L 659 560" fill="none" stroke="#000000" stroke-width="4" stroke-linecap="square" stroke-miterlimit="10" pointer-events="none"/><path d="M 700.24 511.44 C 700.24 543.2 700.24 543.2 700.24 543.2" fill="none" stroke="#000000" stroke-width="4" stroke-linecap="square" stroke-miterlimit="10" pointer-events="none"/><path d="M 280 360 L 280 380 L 640 380 L 640 360" fill="none" stroke="#000000" stroke-width="4" stroke-miterlimit="10" pointer-events="none"/><path d="M 460 360 L 460 376" fill="none" stroke="#000000" stroke-width="4" stroke-miterlimit="10" pointer-events="none"/><ellipse cx="460" cy="380" rx="4" ry="4" fill="#000000" stroke="#000000" stroke-width="4" pointer-events="none"/><path d="M 280 460 L 280 480 L 460 480 L 460 460" fill="none" stroke="#000000" stroke-width="4" stroke-miterlimit="10" pointer-events="none"/><path d="M 640 460 L 640 480 L 464 480" fill="none" stroke="#000000" stroke-width="4" stroke-miterlimit="10" pointer-events="none"/><ellipse cx="460" cy="480" rx="4" ry="4" fill="#000000" stroke="#000000" stroke-width="4" pointer-events="none"/><path d="M 280 560 L 280 580 L 460 580 L 460 560" fill="none" stroke="#000000" stroke-width="4" stroke-miterlimit="10" pointer-events="none"/><path d="M 640 560 L 640 580 L 464 580" fill="none" stroke="#000000" stroke-width="4" stroke-miterlimit="10" pointer-events="none"/><ellipse cx="460" cy="580" rx="4" ry="4" fill="#000000" stroke="#000000" stroke-width="4" pointer-events="none"/><rect x="198" y="398" width="4" height="4" fill="#000000" stroke="none" transform="rotate(270,200,380)" pointer-events="none"/><path d="M 200 362 L 200 398" fill="#000000" stroke="#000000" stroke-width="4" stroke-linecap="square" stroke-miterlimit="10" transform="rotate(270,200,380)" pointer-events="none"/><path d="M 220 380 L 276 380" fill="none" stroke="#000000" stroke-width="4" stroke-miterlimit="10" pointer-events="none"/><ellipse cx="280" cy="380" rx="4" ry="4" fill="#000000" stroke="#000000" stroke-width="4" pointer-events="none"/><rect x="198" y="498" width="4" height="4" fill="#000000" stroke="none" transform="rotate(270,200,480)" pointer-events="none"/><path d="M 200 462 L 200 498" fill="#000000" stroke="#000000" stroke-width="4" stroke-linecap="square" stroke-miterlimit="10" transform="rotate(270,200,480)" pointer-events="none"/><rect x="198" y="598" width="4" height="4" fill="#000000" stroke="none" transform="rotate(270,200,580)" pointer-events="none"/><path d="M 200 562 L 200 598" fill="#000000" stroke="#000000" stroke-width="4" stroke-linecap="square" stroke-miterlimit="10" transform="rotate(270,200,580)" pointer-events="none"/><path d="M 220 480 L 276 480" fill="none" stroke="#000000" stroke-width="4" stroke-miterlimit="10" pointer-events="none"/><ellipse cx="280" cy="480" rx="4" ry="4" fill="#000000" stroke="#000000" stroke-width="4" pointer-events="none"/><path d="M 220 580 L 276 580" fill="none" stroke="#000000" stroke-width="4" stroke-miterlimit="10" pointer-events="none"/><ellipse cx="280" cy="580" rx="4" ry="4" fill="#000000" stroke="#000000" stroke-width="4" pointer-events="none"/><rect x="398" y="278" width="4" height="4" fill="#000000" stroke="none" pointer-events="none"/><path d="M 400 242 L 400 278" fill="#000000" stroke="#000000" stroke-width="4" stroke-linecap="square" stroke-miterlimit="10" pointer-events="none"/><rect x="578" y="278" width="4" height="4" fill="#000000" stroke="none" pointer-events="none"/><path d="M 580 242 L 580 278" fill="#000000" stroke="#000000" stroke-width="4" stroke-linecap="square" stroke-miterlimit="10" pointer-events="none"/><rect x="758" y="278" width="4" height="4" fill="#000000" stroke="none" pointer-events="none"/><path d="M 760 242 L 760 278" fill="#000000" stroke="#000000" stroke-width="4" stroke-linecap="square" stroke-miterlimit="10" pointer-events="none"/><rect x="398" y="658" width="4" height="4" fill="#000000" stroke="none" transform="rotate(180,400,640)" pointer-events="none"/><path d="M 400 622 L 400 658" fill="#000000" stroke="#000000" stroke-width="4" stroke-linecap="square" stroke-miterlimit="10" transform="rotate(180,400,640)" pointer-events="none"/><rect x="578" y="658" width="4" height="4" fill="#000000" stroke="none" transform="rotate(180,580,640)" pointer-events="none"/><path d="M 580 622 L 580 658" fill="#000000" stroke="#000000" stroke-width="4" stroke-linecap="square" stroke-miterlimit="10" transform="rotate(180,580,640)" pointer-events="none"/><rect x="758" y="658" width="4" height="4" fill="#000000" stroke="none" transform="rotate(180,760,640)" pointer-events="none"/><path d="M 760 622 L 760 658" fill="#000000" stroke="#000000" stroke-width="4" stroke-linecap="square" stroke-miterlimit="10" transform="rotate(180,760,640)" pointer-events="none"/><path d="M 400 280 L 400 620" fill="none" stroke="#000000" stroke-width="4" stroke-miterlimit="10" pointer-events="none"/><path d="M 580 280 L 580 620" fill="none" stroke="#000000" stroke-width="4" stroke-miterlimit="10" pointer-events="none"/><path d="M 760 280 L 760 620 L 760 620" fill="none" stroke="#000000" stroke-width="4" stroke-miterlimit="10" pointer-events="none"/><rect x="818" y="398" width="4" height="4" fill="#000000" stroke="none" transform="rotate(90,820,380)" pointer-events="none"/><path d="M 820 362 L 820 398" fill="#000000" stroke="#000000" stroke-width="4" stroke-linecap="square" stroke-miterlimit="10" transform="rotate(90,820,380)" pointer-events="none"/><rect x="818" y="498" width="4" height="4" fill="#000000" stroke="none" transform="rotate(90,820,480)" pointer-events="none"/><path d="M 820 462 L 820 498" fill="#000000" stroke="#000000" stroke-width="4" stroke-linecap="square" stroke-miterlimit="10" transform="rotate(90,820,480)" pointer-events="none"/><rect x="818" y="598" width="4" height="4" fill="#000000" stroke="none" transform="rotate(90,820,580)" pointer-events="none"/><path d="M 820 562 L 820 598" fill="#000000" stroke="#000000" stroke-width="4" stroke-linecap="square" stroke-miterlimit="10" transform="rotate(90,820,580)" pointer-events="none"/><path d="M 800 380 L 644 380" fill="none" stroke="#000000" stroke-width="4" stroke-miterlimit="10" pointer-events="none"/><ellipse cx="640" cy="380" rx="4" ry="4" fill="#000000" stroke="#000000" stroke-width="4" pointer-events="none"/><path d="M 800 480 L 644 480" fill="none" stroke="#000000" stroke-width="4" stroke-miterlimit="10" pointer-events="none"/><ellipse cx="640" cy="480" rx="4" ry="4" fill="#000000" stroke="#000000" stroke-width="4" pointer-events="none"/><path d="M 800 580 L 644 580" fill="none" stroke="#000000" stroke-width="4" stroke-miterlimit="10" pointer-events="none"/><ellipse cx="640" cy="580" rx="4" ry="4" fill="#000000" stroke="#000000" stroke-width="4" pointer-events="none"/></g></svg>